<svg width="600" height="570" viewBox="0 0 600 570" fill="none" xmlns="http://www.w3.org/2000/svg">
<path d="M381.612 238.725H0V0H381.612V238.725Z" fill="white"/>
<path d="M381.612 238.725H0V0H381.612V238.725ZM1.74252 236.983H379.869V1.74252H1.74252V236.983Z" fill="#3F3D56"/>
<path d="M322.815 569.369H105V330.643H322.815V569.369Z" fill="white"/>
<path d="M322.815 569.369H105V330.643H322.815V569.369ZM106.743 567.626H321.072V332.386H106.743V567.626Z" fill="#3F3D56"/>
<path d="M213.907 373.335V392.503C225.281 392.503 236.398 395.875 245.854 402.194C255.311 408.512 262.681 417.493 267.033 428C271.386 438.508 272.524 450.07 270.306 461.224C268.087 472.379 262.61 482.625 254.568 490.667L268.122 504.22C278.845 493.498 286.147 479.836 289.105 464.964C292.063 450.091 290.545 434.675 284.742 420.665C278.939 406.655 269.112 394.681 256.504 386.256C243.895 377.832 229.072 373.335 213.907 373.335Z" fill="#E6E6E6"/>
<path d="M156.404 450.006C156.404 442.454 157.892 434.977 160.781 428C163.671 421.024 167.907 414.685 173.247 409.345C178.586 404.005 184.925 399.77 191.902 396.88C198.879 393.99 206.356 392.503 213.907 392.503V373.335C197.857 373.335 182.212 378.372 169.176 387.736C156.141 397.099 146.373 410.318 141.249 425.529C136.125 440.739 135.903 457.174 140.616 472.516C145.328 487.859 154.737 501.336 167.516 511.048L179.117 495.782C172.053 490.425 166.327 483.503 162.386 475.561C158.445 467.619 156.398 458.872 156.404 450.006V450.006Z" fill="#B263FF"/>
<path d="M599.63 460.726H381.816V222H599.63V460.726Z" fill="white"/>
<path d="M599.63 460.726H381.816V222H599.63V460.726ZM383.558 458.983H597.888V223.743H383.558V458.983Z" fill="#3F3D56"/>
<path d="M452.388 367.936H413.181V430.667H452.388V367.936Z" fill="#575A89"/>
<path d="M509.019 325.244H469.813V430.667H509.019V325.244Z" fill="#E6E6E6"/>
<path d="M565.651 275.583H526.445V430.667H565.651V275.583Z" fill="#B263FF"/>
<path d="M578.72 432.41H402.726V250.316H404.468V430.667H578.72V432.41Z" fill="#3F3D56"/>
<path d="M328.615 188.799H52.9968C52.768 188.799 52.5486 188.708 52.3869 188.546C52.2251 188.384 52.1342 188.165 52.1342 187.936V55.8322C52.1342 55.6035 52.2251 55.3841 52.3868 55.2223C52.5486 55.0605 52.768 54.9697 52.9968 54.9697C53.2255 54.9697 53.4449 55.0605 53.6067 55.2223C53.7685 55.3841 53.8593 55.6035 53.8593 55.8322V187.073H328.615C328.729 187.073 328.841 187.095 328.946 187.138C329.051 187.181 329.146 187.245 329.227 187.325C329.307 187.405 329.371 187.5 329.415 187.605C329.458 187.71 329.48 187.823 329.48 187.936C329.48 188.05 329.458 188.162 329.415 188.267C329.371 188.372 329.307 188.467 329.227 188.547C329.146 188.627 329.051 188.691 328.946 188.734C328.841 188.777 328.729 188.799 328.615 188.799V188.799Z" fill="#3F3D56"/>
<path d="M111.884 179.31H86.8158C86.137 179.31 85.4862 179.04 85.0062 178.56C84.5261 178.08 84.2561 177.429 84.2553 176.75V142.193C84.2561 141.514 84.5261 140.863 85.0062 140.383C85.4862 139.903 86.137 139.633 86.8158 139.633H111.884C112.563 139.633 113.214 139.903 113.694 140.383C114.174 140.863 114.444 141.514 114.445 142.193V176.75C114.444 177.429 114.174 178.08 113.694 178.56C113.214 179.04 112.563 179.31 111.884 179.31V179.31Z" fill="#B263FF"/>
<path d="M157.6 179.31H132.531C131.853 179.31 131.202 179.04 130.722 178.56C130.242 178.08 129.972 177.429 129.971 176.75V109.416C129.972 108.737 130.242 108.086 130.722 107.606C131.202 107.126 131.853 106.856 132.531 106.855H157.6C158.279 106.856 158.93 107.126 159.41 107.606C159.89 108.086 160.16 108.737 160.161 109.416V176.75C160.16 177.429 159.89 178.08 159.41 178.56C158.93 179.04 158.279 179.31 157.6 179.31V179.31Z" fill="#B263FF"/>
<path d="M203.316 179.31H178.247C177.568 179.31 176.917 179.04 176.437 178.56C175.957 178.08 175.687 177.429 175.687 176.75V142.193C175.687 141.514 175.957 140.863 176.437 140.383C176.917 139.903 177.568 139.633 178.247 139.633H203.316C203.994 139.633 204.645 139.903 205.125 140.383C205.605 140.863 205.875 141.514 205.876 142.193V176.75C205.875 177.429 205.605 178.08 205.125 178.56C204.645 179.04 203.994 179.31 203.316 179.31V179.31Z" fill="#B263FF"/>
<path d="M249.031 179.31H223.963C223.299 179.325 222.657 179.075 222.177 178.617C221.698 178.159 221.419 177.529 221.402 176.866V96.3614C221.419 95.6981 221.698 95.0684 222.177 94.6102C222.657 94.1521 223.299 93.9028 223.963 93.9171H249.031C249.695 93.9028 250.337 94.1521 250.817 94.6102C251.296 95.0684 251.575 95.6981 251.592 96.3614V176.866C251.575 177.529 251.296 178.159 250.817 178.617C250.337 179.075 249.695 179.325 249.031 179.31V179.31Z" fill="#B263FF"/>
<path d="M294.747 179.31H269.678C269 179.31 268.349 179.04 267.869 178.56C267.389 178.08 267.119 177.429 267.118 176.75V73.1883C267.119 72.5095 267.389 71.8587 267.869 71.3787C268.349 70.8987 269 70.6287 269.678 70.628H294.747C295.426 70.6287 296.077 70.8987 296.557 71.3787C297.037 71.8587 297.307 72.5095 297.307 73.1883V176.75C297.307 177.429 297.037 178.08 296.557 178.56C296.077 179.04 295.426 179.31 294.747 179.31V179.31Z" fill="#B263FF"/>
<path d="M99.3501 129.282C102.208 129.282 104.525 126.965 104.525 124.107C104.525 121.248 102.208 118.931 99.3501 118.931C96.4918 118.931 94.1747 121.248 94.1747 124.107C94.1747 126.965 96.4918 129.282 99.3501 129.282Z" fill="#3F3D56"/>
<path d="M190.781 129.282C193.64 129.282 195.957 126.965 195.957 124.107C195.957 121.248 193.64 118.931 190.781 118.931C187.923 118.931 185.606 121.248 185.606 124.107C185.606 126.965 187.923 129.282 190.781 129.282Z" fill="#3F3D56"/>
<path d="M190.89 125.266L145.066 90.943L99.867 124.797L98.833 123.416L145.066 88.787L190.672 122.947L235.993 73.352L236.175 73.278L281.89 54.858L282.535 56.459L237.001 74.805L190.89 125.266Z" fill="#3F3D56"/>
</svg>
