<svg width="361" height="557" viewBox="0 0 361 557" fill="none" xmlns="http://www.w3.org/2000/svg">
<path d="M245.732 247.553H135.732V370.553H245.732V247.553Z" fill="#CCCCCC"/>
<path d="M79.7326 555.553H23.7326L17.7326 507.553H85.7326L79.7326 555.553Z" fill="#E6E6E6"/>
<path d="M192.183 520.785L190.293 546.62C190.207 547.789 190.373 548.963 190.778 550.064C191.184 551.164 191.82 552.165 192.644 552.999C193.468 553.833 194.46 554.482 195.555 554.901C196.65 555.32 197.822 555.5 198.993 555.429L212.263 554.625C212.878 554.588 213.477 554.416 214.017 554.121C214.558 553.826 215.027 553.415 215.392 552.918C215.756 552.422 216.006 551.851 216.125 551.246C216.243 550.642 216.227 550.019 216.078 549.421L208.712 519.958L192.183 520.785Z" fill="#E6E6E6"/>
<path d="M303.178 536.062C318.796 539.715 329.952 544.908 337.281 551.936C339.891 554.42 343.306 555.884 346.905 556.062C351.501 556.303 355.26 555.788 358.084 554.526H358.085C358.808 554.208 359.433 553.701 359.895 553.059C360.356 552.417 360.637 551.663 360.709 550.876C360.795 550.076 360.665 549.268 360.333 548.535C360.001 547.802 359.479 547.172 358.821 546.709L321.781 520.354L306.048 526.648L302.378 530.318C301.981 530.716 301.681 531.2 301.502 531.733C301.324 532.266 301.271 532.833 301.349 533.389C301.426 533.946 301.632 534.477 301.949 534.941C302.267 535.404 302.687 535.788 303.178 536.062H303.178Z" fill="#E6E6E6"/>
<path d="M255.116 114.247L149.243 113.267C149.509 97.8461 153.097 82.7035 160.939 69.153C166.09 60.2535 165.979 50.5682 164.737 42.4086C162.822 29.8166 167.276 16.9331 177.174 8.91739C184.739 2.78104 194.286 -0.377712 204.017 0.0360586L206.073 0.121706C212.769 0.399998 219.289 2.35612 225.032 5.81047C230.775 9.26482 235.559 14.1067 238.943 19.8915C242.383 26.0671 243.771 33.1765 242.905 40.1923C242.234 46.7936 243.839 53.4621 247.595 60.1941C254.075 74.9767 255.479 93.8929 255.116 114.247Z" fill="#2F2E41"/>
<path d="M325.95 521.729L305.172 527.149L203.988 306.714L210.312 521.729H189.533C167.33 420.57 127.243 303.822 145.265 266.963L252.773 260.639L325.95 521.729Z" fill="#6C63FF"/>
<path d="M203.085 77.2437C218.552 77.2437 231.091 64.7049 231.091 49.2376C231.091 33.7702 218.552 21.2314 203.085 21.2314C187.617 21.2314 175.078 33.7702 175.078 49.2376C175.078 64.7049 187.617 77.2437 203.085 77.2437Z" fill="#FFB9B9"/>
<path d="M227.477 100.733L181.402 98.0225C185.918 87.6588 187.722 77.6789 185.92 68.2095H220.25C220.172 75.4801 223.79 88.0569 227.477 100.733Z" fill="#FFB9B9"/>
<path d="M256.387 268.77L155.204 275.998L165.593 96.6675L183.21 91.6985L203.085 96.2155L222.96 86.2775L235.608 90.7955L256.387 268.77Z" fill="#6C63FF"/>
<path d="M172.368 397.96L103.256 382.15C123.807 314.002 160.83 158.098 148.879 102.54L185.016 86.278L172.368 397.96Z" fill="#E6E6E6"/>
<path d="M138.941 201.013L112.742 184.751L135.086 119.312C137.578 112.559 142.351 106.89 148.58 103.284L156.107 98.926L151.589 164.876L138.941 201.013Z" fill="#E6E6E6"/>
<path d="M316.464 383.053C294.651 395.673 240.125 402.708 216.184 393.894C214.423 332.321 210.968 158.155 222.057 84.4712L261.807 100.733L258.194 149.518C239.189 191.251 294.373 336.607 316.464 383.053Z" fill="#E6E6E6"/>
<path d="M313.303 192.883L288.91 184.752L256.387 147.711L261.808 100.733L316.013 176.621L313.303 192.883Z" fill="#E6E6E6"/>
<path d="M236.857 228.046C237.256 229.798 238.333 231.32 239.853 232.278C241.372 233.236 243.209 233.553 244.962 233.159L265.668 228.47L262.675 215.253L241.969 219.941C240.216 220.338 238.693 221.415 237.734 222.935C236.776 224.455 236.46 226.294 236.857 228.046V228.046Z" fill="#FFB9B9"/>
<path d="M227.477 42.0101C211.921 35.6136 196.558 35.1508 181.402 41.1067L175.078 18.5211H232.898L227.477 42.0101Z" fill="#2F2E41"/>
<path d="M255.483 212.758L267.228 234.44C286.982 228.93 304.102 211.561 320.53 191.075L316.013 176.621L288.007 183.848L255.483 212.758Z" fill="#E6E6E6"/>
<path d="M246.901 168.038H243.287C243.287 116.927 232.764 81.3092 222.508 81.3092L221.605 77.6955C230.802 77.6955 236.665 92.5195 239.965 104.956C244.438 121.815 246.901 144.218 246.901 168.038Z" fill="#3F3D56"/>
<path d="M163.786 155.39H160.172C160.172 108.581 170.768 79.5023 186.371 79.5023L185.468 83.116C174.675 83.116 163.786 105.464 163.786 155.39Z" fill="#3F3D56"/>
<path d="M245.094 177.976C250.083 177.976 254.128 173.931 254.128 168.941C254.128 163.952 250.083 159.907 245.094 159.907C240.104 159.907 236.06 163.952 236.06 168.941C236.06 173.931 240.104 177.976 245.094 177.976Z" fill="#3F3D56"/>
<path d="M149.331 177.072H145.717C145.717 164.12 153.012 153.583 161.979 153.583V157.197C155.005 157.197 149.331 166.113 149.331 177.072Z" fill="#3F3D56"/>
<path d="M178.24 177.072H174.627C174.627 166.113 168.953 157.197 161.979 157.197V153.583C170.946 153.583 178.24 164.12 178.24 177.072Z" fill="#3F3D56"/>
<path d="M176.434 181.589C178.429 181.589 180.047 179.971 180.047 177.976C180.047 175.98 178.429 174.362 176.434 174.362C174.438 174.362 172.82 175.98 172.82 177.976C172.82 179.971 174.438 181.589 176.434 181.589Z" fill="#3F3D56"/>
<path d="M147.524 181.589C149.52 181.589 151.138 179.971 151.138 177.976C151.138 175.98 149.52 174.362 147.524 174.362C145.528 174.362 143.91 175.98 143.91 177.976C143.91 179.971 145.528 181.589 147.524 181.589Z" fill="#3F3D56"/>
<path d="M102.353 144.746L124.9 148.772L176.434 222.048L149.056 215.606L102.353 144.746Z" fill="#6C63FF"/>
<path d="M98.3535 143.848C98.0099 143.854 97.674 143.951 97.381 144.13C97.0879 144.31 96.8485 144.565 96.6877 144.868C96.5269 145.172 96.4506 145.513 96.4668 145.857C96.483 146.2 96.5912 146.532 96.78 146.819L144.951 219.907C145.22 220.316 145.635 220.606 146.112 220.718L168.524 225.991C168.902 226.08 169.298 226.052 169.66 225.91C170.021 225.769 170.331 225.521 170.549 225.2C170.766 224.878 170.881 224.498 170.877 224.11C170.874 223.722 170.752 223.344 170.529 223.026L117.64 147.824C117.496 147.619 117.314 147.445 117.103 147.31C116.892 147.176 116.656 147.085 116.41 147.041L98.7148 143.881C98.5955 143.86 98.4746 143.849 98.3535 143.848V143.848Z" fill="#3F3D56"/>
<path d="M128.403 196.105L129.742 209.591L150.868 207.494C152.656 207.316 154.301 206.435 155.44 205.046C156.579 203.656 157.119 201.87 156.942 200.082C156.764 198.294 155.884 196.649 154.494 195.51C153.104 194.371 151.318 193.831 149.53 194.008L128.403 196.105Z" fill="#FFB9B9"/>
<path d="M110.032 194.543C110.063 199.142 111.91 203.541 115.17 206.784C118.431 210.026 122.84 211.849 127.439 211.854H130.913L133.442 190.778L112.502 183.24L110.032 194.543Z" fill="#E6E6E6"/>
<path d="M9.35198 489.796C23.7716 509.107 53.704 511.139 53.704 511.139C53.704 511.139 60.2575 481.862 45.8378 462.551C31.4182 443.24 1.48586 441.208 1.48586 441.208C1.48586 441.208 -5.06767 470.484 9.35198 489.796Z" fill="#E6E6E6"/>
<path d="M82.8087 497.055C73.2936 509.798 53.5421 511.139 53.5421 511.139C53.5421 511.139 49.2176 491.82 58.7327 479.077C68.2478 466.335 87.9993 464.993 87.9993 464.993C87.9993 464.993 92.3238 484.312 82.8087 497.055Z" fill="#E6E6E6"/>
</svg>
