<svg width="463" height="448" viewBox="0 0 463 448" fill="none" xmlns="http://www.w3.org/2000/svg">
<path d="M198.451 127.327C187.698 124.109 180.643 115.951 182.692 109.108C184.742 102.265 195.119 99.3289 205.876 102.55C210.19 103.778 214.148 106.021 217.417 109.092L262.806 123.306L255.682 144.464L211.693 128.205C207.272 128.974 202.732 128.673 198.451 127.327H198.451V127.327Z" fill="#A0616A"/>
<path d="M369.795 80.0656L375.795 121.066L327.795 126.066L330.795 73.0656L369.795 80.0656Z" fill="#A0616A"/>
<path d="M324.168 92.278C342.047 92.278 356.54 77.7843 356.54 59.9055C356.54 42.0266 342.047 27.533 324.168 27.533C306.289 27.533 291.795 42.0266 291.795 59.9055C291.795 77.7843 306.289 92.278 324.168 92.278Z" fill="#A0616A"/>
<path d="M100.79 314.649H81.5513L81.4808 314.574C78.0598 310.941 76.5218 305.838 77.3665 300.924C77.6352 299.338 78.1463 297.798 78.886 296.347L84.7391 284.901L82.4146 243.893C82.3717 243.133 82.6359 242.41 83.1584 241.858C83.6809 241.304 84.3888 241 85.1509 241H88.748C90.2275 241 91.4316 242.156 91.4894 243.633L93.055 284.165L101.159 296.822C101.852 297.903 102.408 299.053 102.814 300.241C104.403 304.85 103.821 309.857 101.217 313.978L101.217 313.979L100.79 314.649V314.649Z" fill="#3F3D56"/>
<path d="M99.1354 311.812C98.9528 312.099 98.636 312.273 98.2957 312.273H83.6509C83.3685 312.273 83.0946 312.157 82.9081 311.945C80.436 309.133 79.3468 305.448 79.7786 301.857C79.8259 301.464 80.1168 301.14 80.5 301.039C83.5574 300.234 87.2469 299.765 91.2201 299.765C94.3273 299.765 97.2619 300.053 99.8565 300.563C100.212 300.633 100.505 300.892 100.608 301.239C101.644 304.756 101.154 308.617 99.1353 311.812L99.1354 311.812Z" fill="#6C63FF"/>
<path d="M462.371 311H0.629251C0.281747 311 0 311.224 0 311.5C0 311.776 0.281747 312 0.629251 312H462.371C462.718 312 463 311.776 463 311.5C463 311.224 462.718 311 462.371 311Z" fill="#3F3D56"/>
<path d="M399.795 132.887L400.341 170.26C400.341 170.26 353.361 169.636 336.925 170.935C320.489 172.235 218.035 134.733 218.035 134.733L235.051 110.604L348.074 137.886L399.795 132.887V132.887Z" fill="#E6E6E6"/>
<path d="M201.795 82.0656H194.795V177.066H201.795V82.0656Z" fill="#6C63FF"/>
<path d="M227.07 312.066H186.58L186.431 311.908C179.231 304.262 175.995 293.523 177.772 283.181C178.338 279.842 179.414 276.601 180.97 273.548L193.289 249.458L188.396 163.155C188.306 161.555 188.862 160.033 189.962 158.87C191.062 157.706 192.551 157.066 194.155 157.066H201.726C204.839 157.066 207.374 159.499 207.495 162.607L210.79 247.91L227.846 274.546C229.303 276.822 230.475 279.243 231.329 281.743C234.672 291.443 233.447 301.981 227.968 310.653L227.967 310.655L227.07 312.066H227.07Z" fill="#3F3D56"/>
<path d="M223.586 306.095C223.202 306.699 222.536 307.066 221.819 307.066H190.998C190.404 307.066 189.827 306.82 189.435 306.374C184.232 300.457 181.94 292.702 182.849 285.144C182.948 284.316 183.561 283.635 184.367 283.422C190.802 281.727 198.566 280.742 206.928 280.742C213.468 280.742 219.643 281.347 225.104 282.42C225.852 282.567 226.47 283.112 226.685 283.843C228.866 291.244 227.835 299.37 223.586 306.095V306.095V306.095Z" fill="#6C63FF"/>
<path d="M223.312 206.784C214.156 198.564 202.371 196.716 196.989 202.656C191.608 208.596 194.67 220.073 203.83 228.294C207.443 231.63 211.825 234.034 216.608 235.307L255.856 269.636L272.048 250.531L231.638 218.717C229.874 214.11 227.019 210.019 223.312 206.784V206.784V206.784Z" fill="#A0616A"/>
<path d="M330.795 116.066L379.795 109.066L408.795 131.066L411.795 252.066L439.795 445.066L253.795 447.066C253.795 447.066 267.795 322.066 274.795 315.066C281.795 308.066 286.795 276.066 286.795 276.066L300.795 138.066L330.795 116.066V116.066Z" fill="#E6E6E6"/>
<path d="M312.295 137.566C312.295 137.566 286.295 135.566 280.295 153.566C274.295 171.566 267.295 230.566 267.295 230.566L251.295 232.566L237.295 217.566L222.295 253.566C222.295 253.566 275.295 311.566 295.295 285.566C315.295 259.566 312.295 137.566 312.295 137.566Z" fill="#E6E6E6"/>
<path d="M388.295 230.566C388.295 230.566 362.295 216.566 365.295 195.566C368.295 174.566 387.295 169.566 374.295 145.566C361.295 121.566 368.295 93.5656 368.295 93.5656L365.054 88.5656C365.054 88.5656 338.76 98.5656 330.528 88.5656C322.295 78.5656 326.295 69.5656 314.295 67.5656C302.295 65.5656 286.295 45.5656 294.295 32.5656C302.295 19.5656 301.295 11.5656 314.295 9.56565C327.295 7.56565 358.295 -6.43435 363.295 3.56565C368.295 13.5656 385.295 24.5656 382.295 34.5656C379.295 44.5656 379.295 76.6168 379.295 76.6168C379.295 76.6168 421.839 93.5656 415.567 109.066C409.295 124.566 398.295 124.566 408.295 154.566C418.295 184.566 388.295 230.566 388.295 230.566H388.295Z" fill="#2F2E41"/>
<path d="M121.436 317.409C119.404 317.443 117.374 317.211 115.365 316.715C113.494 316.192 112.546 315.45 112.546 314.509L112.546 314.492L116.036 270.62L114.279 262.301C114.025 261.099 114.409 259.785 115.137 259.366C115.29 259.278 115.45 259.234 115.611 259.237L127.171 259.436C127.942 259.449 128.56 260.492 128.552 261.765C128.551 262.004 128.526 262.242 128.481 262.47L126.835 270.619L130.325 314.492C130.326 316.798 124.738 317.409 121.436 317.409H121.436Z" fill="#E6E6E6"/>
<path d="M56.8161 317.409C54.7846 317.443 52.7547 317.211 50.7455 316.715C48.8746 316.192 47.9259 315.45 47.9259 314.509L47.9267 314.492L51.4167 270.62L49.659 262.301C49.4051 261.099 49.7894 259.785 50.5174 259.366C50.6698 259.278 50.8303 259.234 50.9917 259.237L62.551 259.436C63.322 259.449 63.9404 260.492 63.9323 261.765C63.9308 262.004 63.9067 262.242 63.8608 262.47L62.2154 270.619L65.7056 314.492C65.7063 316.798 60.1181 317.409 56.8161 317.409V317.409Z" fill="#E6E6E6"/>
<path d="M152.897 313.64H135.073V283.76H152.897C154.923 283.754 156.561 282.107 156.555 280.08C156.549 278.062 154.915 276.427 152.897 276.421H28.6586C26.6321 276.427 24.994 278.075 25 280.102C25.006 282.12 26.6405 283.754 28.6586 283.76H43.8608V313.64H28.6587C26.6321 313.646 24.9941 315.294 25 317.321C25.006 319.339 26.6405 320.973 28.6587 320.979H152.897C154.923 320.973 156.561 319.326 156.555 317.299C156.549 315.281 154.915 313.646 152.897 313.64H152.897ZM51.1997 313.64L59.5808 291.317L127.735 283.76V313.64H51.1997V313.64V313.64Z" fill="#F2F2F2"/>
</svg>
