<svg width="517" height="618" viewBox="0 0 517 618" fill="none" xmlns="http://www.w3.org/2000/svg">
<path d="M413.957 95.0431L345.454 95.7105C342.235 79.8591 331.416 38.2677 341.159 26.9232C341.603 22.6534 343.677 18.7195 346.948 15.9402C350.22 13.1609 354.438 11.7505 358.723 12.0026V12.0026C369.34 -4.6172 387.025 -2.12184 398.978 8.25797C411.007 12.4087 415.543 19.7828 413.957 29.7897C422.865 37.5877 424.509 47.0751 420.51 57.8746L413.957 95.0431Z" fill="#2F2E41"/>
<path d="M407.362 137.242L357.94 130.399L348.055 115.953C361.671 106.921 366.489 94.3056 360.221 77.175L394.436 76.4146C392.833 91.6697 397.878 103.481 411.924 110.63L407.362 137.242Z" fill="#FFB9B9"/>
<path d="M346.255 583.02L344.365 608.855C344.28 610.024 344.445 611.198 344.851 612.298C345.256 613.399 345.892 614.399 346.716 615.234C347.54 616.068 348.533 616.716 349.628 617.135C350.723 617.555 351.895 617.735 353.065 617.664L366.335 616.86C366.95 616.823 367.549 616.65 368.09 616.355C368.63 616.06 369.1 615.65 369.464 615.153C369.828 614.656 370.078 614.085 370.197 613.481C370.316 612.876 370.3 612.253 370.15 611.656L362.784 582.193L346.255 583.02Z" fill="#E6E6E6"/>
<path d="M389.216 582.193L381.85 611.656C381.7 612.253 381.684 612.876 381.803 613.481C381.922 614.085 382.172 614.656 382.536 615.153C382.9 615.65 383.37 616.06 383.91 616.355C384.451 616.65 385.05 616.823 385.665 616.86L398.935 617.664C400.105 617.735 401.277 617.555 402.372 617.135C403.467 616.716 404.46 616.068 405.284 615.234C406.108 614.399 406.744 613.398 407.149 612.298C407.555 611.198 407.72 610.024 407.635 608.854L405.745 583.019L389.216 582.193Z" fill="#E6E6E6"/>
<path d="M406.602 586.606L388.694 584.809L370.866 394.239L364.128 584.195L346.534 583.565L316.881 320.485H430.172L406.602 586.606Z" fill="#6C63FF"/>
<path d="M379.229 89.3405C398.126 89.3405 413.445 74.0217 413.445 55.125C413.445 36.2283 398.126 20.9095 379.229 20.9095C360.333 20.9095 345.014 36.2283 345.014 55.125C345.014 74.0217 360.333 89.3405 379.229 89.3405Z" fill="#FFB9B9"/>
<path d="M446.9 326.568L308.517 328.089C329.054 249.908 341.339 177.284 319.922 127.358L354.138 110.63C370.636 127.838 389.009 126.064 408.883 109.11L441.578 117.473C435.978 182.944 438.488 253.064 446.9 326.568Z" fill="#6C63FF"/>
<path d="M270.5 245.972L356.419 280.187L375.628 285.837C376.488 286.09 377.389 286.166 378.279 286.062C379.168 285.957 380.027 285.674 380.804 285.229C381.582 284.784 382.261 284.187 382.802 283.472C383.342 282.758 383.733 281.942 383.95 281.074C384.331 279.55 384.16 277.941 383.467 276.531C382.775 275.122 381.606 274.003 380.167 273.374L360.221 267.261L300.153 232.285L312.699 199.21L286.467 185.144L270.5 245.972Z" fill="#FFB9B9"/>
<path d="M271.26 183.623C287.607 190.001 300.609 200.885 310.798 215.558L342.733 169.177L319.922 127.358L271.26 183.623Z" fill="#6C63FF"/>
<path d="M417.792 49.5797C403.905 46.0016 390.252 45.5103 376.979 50.0488C368.525 54.1436 358.371 53.7663 347.08 50.3925V16.2556L408.039 17.8812L417.792 49.5797Z" fill="#2F2E41"/>
<path d="M356.134 206.106C353.447 206.109 350.871 207.178 348.971 209.077C347.072 210.977 346.003 213.553 346 216.24L350 299.972C350.003 302.659 351.072 305.235 352.971 307.135C354.871 309.034 357.447 310.103 360.134 310.106H405.866C408.553 310.103 411.129 309.034 413.029 307.135C414.928 305.235 415.997 302.659 416 299.972L420 216.24C419.997 213.553 418.928 210.977 417.029 209.077C415.129 207.178 412.553 206.109 409.866 206.106H356.134Z" fill="#3F3D56"/>
<path d="M485.89 239.646L411 269.466L405.35 271.716C405.17 271.786 404.99 271.846 404.8 271.906L385.87 277.476C383.45 278.186 380.1 274.926 378.14 272.676C377.17 271.592 376.62 270.196 376.59 268.741C376.561 267.286 377.054 265.869 377.98 264.746C378.242 264.444 378.529 264.167 378.84 263.916C379.57 263.348 380.429 262.97 381.34 262.816L400.25 259.096C400.928 258.963 401.58 258.72 402.18 258.376L411 253.236L456.79 226.576C458.064 225.836 459.033 224.668 459.526 223.279C460.018 221.891 460.002 220.373 459.48 218.996L450.74 195.946C450.204 194.536 450.2 192.978 450.728 191.565C451.256 190.152 452.281 188.979 453.61 188.266L468.09 180.506C468.917 180.062 469.835 179.811 470.773 179.773C471.711 179.735 472.646 179.91 473.507 180.286C474.368 180.661 475.132 181.227 475.742 181.941C476.352 182.654 476.793 183.497 477.03 184.406L489.6 232.286C489.987 233.754 489.823 235.313 489.139 236.669C488.456 238.025 487.3 239.083 485.89 239.646V239.646Z" fill="#FFB9B9"/>
<path d="M490.24 175.259C473.893 181.637 460.891 192.521 450.702 207.194L418.767 160.813L441.578 117.473L490.24 175.259Z" fill="#6C63FF"/>
<path d="M402 85.5786C387.032 91.8047 371.337 91.5519 355 85.5786C359.754 77.4646 352.648 71.1097 349 62.9188L410 61.106C405.335 68.2217 398.452 76.6286 402 85.5786Z" fill="white"/>
<path d="M409.354 62.46L408.646 61.753L409.646 60.753L415.62 53.781L416.38 54.431L410.38 61.431L409.354 62.46Z" fill="white"/>
<path d="M344.82 58.2219L344.18 58.9905L350.18 63.9905L350.82 63.2219L344.82 58.2219Z" fill="white"/>
<path d="M411.077 68.339L400.575 84.8375L401.419 85.3746L411.921 68.8762L411.077 68.339Z" fill="white"/>
<path d="M345.922 68.3378L345.078 68.8748L355.578 85.3748L356.422 84.8378L345.922 68.3378Z" fill="white"/>
<path d="M413 251.821V269.938L406.693 272.45C406.492 272.528 406.291 272.595 406.079 272.662L384.949 278.879C382.248 279.672 378.508 276.033 376.32 273.521C375.237 272.311 374.624 270.752 374.591 269.128C374.558 267.504 375.108 265.922 376.142 264.669C376.434 264.333 376.755 264.023 377.102 263.743C377.916 263.109 378.875 262.687 379.892 262.515L401 258.363C401.758 258.214 402.485 257.942 403.155 257.559L413 251.821Z" fill="white"/>
<path d="M422.14 187.202H418.526C418.526 136.091 408.003 100.473 397.747 100.473L396.844 96.8594C406.041 96.8594 411.904 111.683 415.203 124.12C419.677 140.979 422.14 163.382 422.14 187.202Z" fill="#3F3D56"/>
<path d="M339.025 174.554H335.411C335.411 127.745 346.007 98.6663 361.61 98.6663L360.707 102.28C349.914 102.28 339.025 124.628 339.025 174.554Z" fill="#3F3D56"/>
<path d="M420.333 197.14C425.322 197.14 429.367 193.095 429.367 188.105C429.367 183.116 425.322 179.071 420.333 179.071C415.343 179.071 411.299 183.116 411.299 188.105C411.299 193.095 415.343 197.14 420.333 197.14Z" fill="#3F3D56"/>
<path d="M324.57 196.236H320.956C320.956 183.284 328.251 172.747 337.218 172.747V176.361C330.244 176.361 324.57 185.277 324.57 196.236Z" fill="#3F3D56"/>
<path d="M353.479 196.236H349.866C349.866 185.277 344.192 176.361 337.218 176.361V172.747C346.185 172.747 353.479 183.284 353.479 196.236Z" fill="#3F3D56"/>
<path d="M351.673 200.753C353.668 200.753 355.286 199.135 355.286 197.14C355.286 195.144 353.668 193.526 351.673 193.526C349.677 193.526 348.059 195.144 348.059 197.14C348.059 199.135 349.677 200.753 351.673 200.753Z" fill="#3F3D56"/>
<path d="M322.763 200.753C324.759 200.753 326.377 199.135 326.377 197.14C326.377 195.144 324.759 193.526 322.763 193.526C320.767 193.526 319.149 195.144 319.149 197.14C319.149 199.135 320.767 200.753 322.763 200.753Z" fill="#3F3D56"/>
<path d="M517 615H0V618H517V615Z" fill="#3F3D56"/>
<path d="M11 615.106H221V360.39C221 346.902 207.715 335.929 191.386 335.929H40.6143C24.2847 335.929 11 346.902 11 360.39V615.106Z" fill="#E6E6E6"/>
<path d="M27 604.573H205V388.671C205 377.238 193.739 367.937 179.898 367.937H52.1016C38.2604 367.937 27 377.238 27 388.671V604.573Z" fill="white"/>
<path d="M9.41357 316.106C4.22314 316.106 0 319.594 0 323.881V346.325C0 350.612 4.22314 354.1 9.41357 354.1H222.587C227.777 354.1 232 350.612 232 346.325V323.881C232 319.594 227.777 316.106 222.587 316.106H9.41357Z" fill="#3F3D56"/>
<path d="M153.507 462.385L142.022 450.202L128.638 462.819L140.122 475.002C141.799 476.77 144.107 477.803 146.543 477.875C148.979 477.947 151.345 477.052 153.123 475.386V475.386C154.891 473.709 155.924 471.401 155.996 468.965C156.068 466.529 155.173 464.164 153.507 462.385V462.385Z" fill="#6C63FF"/>
<path opacity="0.2" d="M155.984 468.297C155.769 470.493 154.766 472.537 153.162 474.052V474.052C151.384 475.719 149.019 476.614 146.583 476.542C144.147 476.47 141.838 475.437 140.162 473.669L129.324 462.172L128.638 462.819L140.122 475.002C141.799 476.77 144.107 477.803 146.543 477.875C148.979 477.947 151.345 477.052 153.123 475.386C154.081 474.479 154.833 473.377 155.327 472.154C155.82 470.93 156.045 469.615 155.984 468.297V468.297Z" fill="black"/>
<path d="M153.507 518.385L142.022 506.202L128.638 518.819L140.122 531.002C141.799 532.77 144.107 533.803 146.543 533.875C148.979 533.947 151.345 533.052 153.123 531.386V531.386C154.891 529.709 155.924 527.401 155.996 524.965C156.068 522.529 155.173 520.164 153.507 518.385V518.385Z" fill="#6C63FF"/>
<path opacity="0.2" d="M155.984 524.297C155.769 526.493 154.766 528.537 153.162 530.052C151.384 531.719 149.019 532.614 146.583 532.542C144.147 532.47 141.838 531.437 140.162 529.669L129.324 518.172L128.638 518.819L140.122 531.002C141.799 532.77 144.107 533.803 146.543 533.875C148.979 533.947 151.345 533.052 153.123 531.386V531.386C154.081 530.479 154.833 529.377 155.327 528.154C155.82 526.93 156.045 525.615 155.984 524.297V524.297Z" fill="black"/>
<path d="M160.754 551.83C162.502 550.131 163.507 547.811 163.549 545.374C163.591 542.938 162.668 540.583 160.98 538.825V538.825C159.282 537.078 156.961 536.073 154.524 536.031C152.088 535.988 149.734 536.912 147.976 538.6L135.594 550.559L148.372 563.789L160.754 551.83Z" fill="#3F3D56"/>
<path d="M137.008 574.765L149.051 563.133L136.272 549.904L124.23 561.535C122.482 563.233 121.477 565.554 121.435 567.991C121.392 570.427 122.316 572.781 124.004 574.539V574.539C125.702 576.287 128.023 577.292 130.459 577.334C132.896 577.376 135.25 576.453 137.008 574.765V574.765Z" fill="#6C63FF"/>
<path d="M188.754 487.83C190.502 486.131 191.507 483.811 191.549 481.374C191.591 478.938 190.668 476.583 188.98 474.825V474.825C187.282 473.078 184.961 472.073 182.524 472.03C180.088 471.988 177.734 472.912 175.976 474.6L163.594 486.559L176.372 499.789L188.754 487.83Z" fill="#3F3D56"/>
<path d="M165.008 510.765L177.051 499.133L164.272 485.904L152.23 497.535C150.482 499.233 149.477 501.554 149.435 503.991C149.392 506.427 150.316 508.781 152.004 510.539V510.539C153.702 512.287 156.023 513.292 158.459 513.334C160.896 513.376 163.25 512.453 165.008 510.765Z" fill="#6C63FF"/>
<path opacity="0.2" d="M159.127 513.314C156.928 513.125 154.872 512.148 153.338 510.562V510.562C151.65 508.805 150.726 506.45 150.768 504.014C150.811 501.577 151.816 499.256 153.564 497.558L164.928 486.582L164.272 485.904L152.23 497.535C150.482 499.233 149.477 501.554 149.435 503.991C149.392 506.427 150.316 508.781 152.004 510.539V510.539C152.922 511.486 154.033 512.225 155.263 512.704C156.492 513.182 157.81 513.391 159.127 513.314Z" fill="black"/>
<path d="M167.861 560.363C166.185 558.594 163.876 557.561 161.44 557.489C159.005 557.417 156.639 558.312 154.861 559.979V559.979C153.093 561.655 152.06 563.964 151.988 566.4C151.916 568.836 152.811 571.201 154.477 572.979L166.285 585.505L179.669 572.889L167.861 560.363Z" fill="#3F3D56"/>
<path d="M190.507 584.385L179.022 572.202L165.638 584.819L177.122 597.002C178.799 598.77 181.107 599.803 183.543 599.875C185.979 599.947 188.345 599.052 190.123 597.386V597.386C191.891 595.709 192.924 593.401 192.996 590.965C193.068 588.529 192.173 586.164 190.507 584.385Z" fill="#6C63FF"/>
<path opacity="0.2" d="M192.984 590.297C192.769 592.493 191.766 594.537 190.162 596.052V596.052C188.384 597.719 186.019 598.614 183.583 598.542C181.147 598.47 178.838 597.437 177.162 595.669L166.324 584.172L165.638 584.819L177.122 597.002C178.799 598.77 181.107 599.803 183.543 599.875C185.979 599.947 188.345 599.052 190.123 597.386V597.386C191.081 596.479 191.833 595.377 192.327 594.154C192.82 592.93 193.045 591.615 192.984 590.297V590.297Z" fill="black"/>
<path d="M160.158 586.369C160.159 589.427 159.103 592.391 157.169 594.759C155.236 597.128 152.543 598.756 149.547 599.367C147.797 599.721 145.993 599.721 144.242 599.367C141.247 598.755 138.554 597.127 136.621 594.759C134.688 592.39 133.632 589.427 133.632 586.369C133.632 583.312 134.688 580.348 136.621 577.98C138.554 575.611 141.247 573.983 144.242 573.371C145.993 573.018 147.797 573.018 149.547 573.371C152.543 573.983 155.236 575.611 157.169 577.979C159.103 580.348 160.159 583.312 160.158 586.369V586.369Z" fill="#6C63FF"/>
<path opacity="0.2" d="M149.547 573.371V599.367C147.797 599.721 145.993 599.721 144.242 599.367V573.371C145.993 573.018 147.797 573.018 149.547 573.371Z" fill="black"/>
<path d="M189.31 518.293C191.511 520.415 192.913 523.232 193.276 526.268C193.64 529.304 192.943 532.372 191.305 534.953C190.344 536.459 189.093 537.758 187.623 538.773C185.103 540.505 182.063 541.314 179.016 541.062C175.969 540.81 173.102 539.514 170.901 537.392C168.7 535.271 167.299 532.454 166.935 529.418C166.572 526.382 167.268 523.314 168.906 520.733C169.866 519.227 171.118 517.928 172.588 516.913C175.107 515.18 178.147 514.371 181.195 514.623C184.242 514.874 187.109 516.171 189.31 518.293V518.293Z" fill="#6C63FF"/>
<path opacity="0.2" d="M172.588 516.913L191.305 534.953C190.344 536.459 189.093 537.758 187.623 538.773L168.906 520.733C169.866 519.227 171.118 517.928 172.588 516.913V516.913Z" fill="black"/>
<path d="M193.31 547.293C195.511 549.415 196.913 552.232 197.276 555.268C197.64 558.304 196.943 561.372 195.305 563.953C194.344 565.459 193.093 566.758 191.623 567.773C189.103 569.505 186.063 570.314 183.016 570.062C179.969 569.81 177.102 568.514 174.901 566.392C172.7 564.271 171.299 561.454 170.935 558.418C170.572 555.382 171.268 552.314 172.906 549.733C173.866 548.227 175.118 546.928 176.588 545.913C179.107 544.18 182.147 543.371 185.195 543.623C188.242 543.874 191.109 545.171 193.31 547.293V547.293Z" fill="#6C63FF"/>
<path opacity="0.2" d="M176.588 545.913L195.305 563.953C194.344 565.459 193.093 566.758 191.623 567.773L172.906 549.733C173.866 548.227 175.118 546.928 176.588 545.913V545.913Z" fill="black"/>
<path opacity="0.2" d="M176.5 316.106H171.5V353.106H176.5V316.106Z" fill="black"/>
<path opacity="0.2" d="M205.5 316.106H200.5V353.106H205.5V316.106Z" fill="black"/>
</svg>
