<svg width="204" height="443" viewBox="0 0 204 443" fill="none" xmlns="http://www.w3.org/2000/svg">
<path d="M70.2142 228.587C71.2014 227.611 71.9626 226.43 72.444 225.127C72.9255 223.825 73.1155 222.433 73.0008 221.049C72.8861 219.666 72.4694 218.324 71.78 217.119C71.0907 215.913 70.1454 214.874 69.0109 214.074L64.2146 182.454L44.5135 188.655L55.3065 216.865C54.0882 218.86 53.644 221.232 54.0582 223.533C54.4724 225.834 55.7161 227.902 57.5537 229.347C59.3912 230.792 61.695 231.513 64.0284 231.373C66.3619 231.233 68.5628 230.241 70.2142 228.587H70.2142Z" fill="#FFB8B8"/>
<path d="M49.9186 213.711L37.7656 156.955C36.5816 151.518 36.8133 145.868 38.4384 140.547C40.0636 135.225 43.0277 130.41 47.047 126.562C62.603 111.572 82.596 92.6769 89.502 87.7895C95.9838 83.1693 103.827 80.8543 111.779 81.2141L111.945 81.2324L122.399 91.1119L99.6262 128.601L65.0545 150.262L68.9018 205.891L49.9186 213.711Z" fill="#6C63FF"/>
<path d="M92.48 136.583H41.48C39.2708 136.583 37.48 138.374 37.48 140.583C37.48 142.792 39.2708 144.583 41.48 144.583H92.48C94.6891 144.583 96.48 142.792 96.48 140.583C96.48 138.374 94.6891 136.583 92.48 136.583Z" fill="#CCCCCC"/>
<path d="M92.48 223.583H41.48C39.2708 223.583 37.48 225.374 37.48 227.583C37.48 229.792 39.2708 231.583 41.48 231.583H92.48C94.6891 231.583 96.48 229.792 96.48 227.583C96.48 225.374 94.6891 223.583 92.48 223.583Z" fill="#CCCCCC"/>
<path d="M67.48 441.583C66.9801 441.583 66.4984 441.396 66.1297 441.058C65.761 440.721 65.532 440.258 65.4878 439.76L39.9917 140.76C39.9448 140.231 40.1097 139.706 40.4502 139.299C40.7907 138.893 41.2788 138.638 41.8071 138.591C42.3355 138.544 42.8608 138.709 43.2676 139.049C43.6743 139.39 43.9292 139.878 43.9761 140.406L67.4512 416.658L90.2591 140.411C90.2817 140.149 90.3555 139.895 90.4765 139.662C90.5975 139.428 90.7632 139.222 90.9642 139.052C91.1652 138.883 91.3976 138.755 91.648 138.676C91.8984 138.597 92.162 138.568 92.4236 138.59C92.6853 138.613 92.94 138.687 93.1731 138.808C93.4062 138.929 93.6132 139.095 93.7823 139.296C93.9514 139.496 94.0792 139.729 94.1585 139.979C94.2378 140.23 94.267 140.493 94.2444 140.755L69.4727 439.755C69.4296 440.253 69.2014 440.717 68.833 441.056C68.4646 441.394 67.9827 441.582 67.4825 441.583H67.48Z" fill="#CCCCCC"/>
<path d="M124.715 69.2457C139.206 69.2457 150.953 57.4982 150.953 43.0069C150.953 28.5156 139.206 16.7681 124.715 16.7681C110.223 16.7681 98.4758 28.5156 98.4758 43.0069C98.4758 57.4982 110.223 69.2457 124.715 69.2457Z" fill="#FFB8B8"/>
<path d="M136.922 412.938L132.502 412.279C119.095 410.281 118.292 410.161 116.163 409.227C115.076 408.749 115 401.533 115.653 360.971C116.131 331.197 116.728 294.141 115.57 274.248C115.522 273.463 115.212 272.717 114.688 272.131C114.165 271.544 113.459 271.151 112.684 271.014C111.91 270.878 111.112 271.006 110.419 271.379C109.727 271.751 109.18 272.346 108.867 273.068C98.8914 296.105 82.1549 347.658 71.0799 381.772C67.2276 393.638 64.1849 403.011 62.2598 408.629C61.8881 409.692 61.1335 410.577 60.1435 411.113C59.1535 411.649 57.9993 411.797 56.9063 411.527C47.7923 409.249 48.4017 408.28 35.4207 404.923C34.2976 404.636 33.3289 403.927 32.7172 402.942C32.1055 401.958 31.8983 400.775 32.139 399.641C34.4869 388.569 77.4534 209.041 80.7423 191.975C80.8535 191.391 81.0794 190.835 81.4069 190.339C81.7344 189.842 82.157 189.416 82.6503 189.084C83.1436 188.752 83.6978 188.52 84.2808 188.404C84.8639 188.287 85.4643 188.287 86.0474 188.404C95.7213 190.353 101.607 192.421 111.166 194.42C121.482 196.578 132.149 198.809 142.553 200.892C143.588 201.1 144.516 201.669 145.172 202.497C147.746 205.749 151.564 207.574 155.606 209.506C158.33 210.809 152.156 210.692 154.529 212.57C164.139 220.178 150.319 374.658 141.969 409.548C141.701 410.64 141.035 411.593 140.102 412.22C139.168 412.847 138.034 413.103 136.922 412.938V412.938Z" fill="#2F2E41"/>
<path d="M135.898 65.9666C134.366 59.4665 142.11 45.4801 140.579 38.98C139.541 34.578 129.19 37.5704 126.774 33.747C124.359 29.9236 120.313 26.826 115.79 26.7753C110.592 26.717 105.477 30.5728 100.553 28.9063C95.5748 27.2213 93.9834 20.4034 96.1845 15.6304C98.3857 10.8574 103.127 7.81591 107.812 5.43264C115.79 1.37418 125.078 -1.58952 133.617 1.09564C138.778 2.71881 143.094 6.23594 147.27 9.6759C151.077 12.8116 154.948 16.0184 157.609 20.1709C162.822 28.3057 162.508 39.2664 158.053 47.84C153.597 56.4135 145.479 62.7051 136.534 66.3572" fill="#2F2E41"/>
<path d="M71.4701 217.233C74.3021 212.502 78.6017 190.336 83.9039 153.13C87.5138 127.731 90.6591 101.924 92.2196 88.741C92.3408 87.6741 92.7309 86.6554 93.3535 85.7806C93.9761 84.9058 94.8108 84.2035 95.7792 83.7395C96.7919 83.2508 97.7985 82.7882 98.7991 82.3518C111.722 76.7307 124.819 74.8684 137.723 76.8157C150.608 78.7947 162.694 84.3018 172.642 92.7268L172.76 92.8377L172.79 92.9959C172.846 93.2889 178.266 122.494 167.165 142.225C156.217 161.694 156.089 213.252 156.089 213.77V214.433L155.451 214.251C138.419 209.385 72.6265 217.899 71.9637 217.986L70.9393 218.119L71.4701 217.233Z" fill="#6C63FF"/>
<path d="M170.48 149.583H119.48C117.271 149.583 115.48 151.374 115.48 153.583C115.48 155.792 117.271 157.583 119.48 157.583H170.48C172.689 157.583 174.48 155.792 174.48 153.583C174.48 151.374 172.689 149.583 170.48 149.583Z" fill="#CCCCCC"/>
<path d="M170.48 236.583H119.48C117.271 236.583 115.48 238.374 115.48 240.583C115.48 242.792 117.271 244.583 119.48 244.583H170.48C172.689 244.583 174.48 242.792 174.48 240.583C174.48 238.374 172.689 236.583 170.48 236.583Z" fill="#CCCCCC"/>
<path d="M145.48 442.583C144.98 442.583 144.498 442.396 144.13 442.058C143.761 441.721 143.532 441.258 143.488 440.76L117.992 153.76C117.969 153.498 117.997 153.234 118.076 152.984C118.154 152.733 118.282 152.501 118.45 152.299C118.619 152.098 118.825 151.932 119.058 151.81C119.291 151.688 119.546 151.614 119.807 151.591C120.069 151.568 120.332 151.596 120.583 151.675C120.834 151.753 121.066 151.881 121.268 152.049C121.469 152.218 121.635 152.424 121.757 152.657C121.878 152.89 121.953 153.145 121.976 153.406L145.451 417.658L168.259 153.411C168.305 152.883 168.558 152.394 168.964 152.052C169.37 151.711 169.895 151.545 170.424 151.59C170.952 151.636 171.441 151.89 171.782 152.295C172.124 152.701 172.29 153.226 172.244 153.755L147.473 440.755C147.43 441.253 147.201 441.717 146.833 442.056C146.465 442.394 145.983 442.582 145.483 442.583H145.48Z" fill="#CCCCCC"/>
<path d="M129.013 237.85C128.715 236.494 128.717 235.089 129.021 233.734C129.324 232.379 129.921 231.107 130.769 230.008C131.617 228.909 132.696 228.009 133.93 227.372C135.164 226.734 136.522 226.376 137.909 226.32L159.117 202.382L172.286 218.293L147.897 236.11C147.836 238.446 146.92 240.68 145.322 242.386C143.724 244.092 141.556 245.153 139.228 245.368C136.9 245.582 134.575 244.935 132.692 243.55C130.809 242.164 129.5 240.136 129.013 237.85V237.85Z" fill="#FFB8B8"/>
<path d="M141.361 221.189L174.818 176.579L157.565 139.61L158.818 95.764L172.962 93.1507L173.112 93.2259C179.983 97.2446 185.309 103.45 188.24 110.85C191.382 118.706 197.899 145.431 202.813 166.469C204.096 171.883 203.968 177.536 202.441 182.886C200.913 188.237 198.038 193.105 194.09 197.026L153.047 238.069L141.361 221.189Z" fill="#6C63FF"/>
<path d="M1.11048 430.178L46.8834 441.199C47.7714 441.434 48.7137 441.35 49.5461 440.961C50.3784 440.573 51.048 439.904 51.4381 439.073L90.7579 334.531C90.9315 334.129 91.0213 333.696 91.0219 333.258C91.0224 332.82 90.9338 332.387 90.7614 331.985C90.5631 331.533 90.2752 331.127 89.9151 330.79C89.555 330.452 89.1303 330.192 88.6666 330.024L54.2521 316.881C53.7081 316.673 53.1264 316.582 52.5449 316.614C51.9634 316.647 51.3953 316.801 50.8776 317.068C50.4277 317.29 50.0307 317.606 49.7133 317.994C49.3958 318.383 49.1653 318.835 49.0372 319.32L49.0362 319.325L24.7463 411.463L24.3854 411.486C24.2458 411.495 10.321 412.442 4.05924 419.959C2.89056 421.367 2.0254 423.002 1.51798 424.761C1.01057 426.519 0.871844 428.364 1.11048 430.178V430.178Z" fill="#CCCCCC"/>
</svg>
